<svg xmlns="http://www.w3.org/2000/svg" width="1200" height="1680" viewBox="0 0 1200 1680" role="img" aria-labelledby="title desc">
  <title id="title">Mpox and VZV coinfection pipeline overview</title>
  <desc id="desc">A publication-style vertical overview of the Snakemake workflow from inputs and quality control through discovery, reference-based analysis, phylogeny, and outputs.</desc>
  <defs>
    <linearGradient id="bg" x1="0" y1="0" x2="1" y2="1">
      <stop offset="0%" stop-color="#f4efe6"/>
      <stop offset="100%" stop-color="#eef5f4"/>
    </linearGradient>
    <filter id="shadow" x="-10%" y="-10%" width="120%" height="120%">
      <feDropShadow dx="0" dy="10" stdDeviation="16" flood-color="#19363c" flood-opacity="0.12"/>
    </filter>
    <marker id="arrow" viewBox="0 0 10 10" refX="8" refY="5" markerWidth="9" markerHeight="9" orient="auto">
      <path d="M 0 0 L 10 5 L 0 10 z" fill="#345861"/>
    </marker>
    <style>
      .title { font: 700 34px Georgia, 'Times New Roman', serif; fill: #10292f; }
      .subtitle { font: 400 18px Georgia, 'Times New Roman', serif; fill: #3c5c63; }
      .section-label { font: 700 15px Georgia, 'Times New Roman', serif; letter-spacing: 1.6px; text-transform: uppercase; fill: #ffffff; }
      .section-title { font: 700 24px Georgia, 'Times New Roman', serif; fill: #10292f; }
      .box-title { font: 700 19px Georgia, 'Times New Roman', serif; fill: #10292f; }
      .box-text { font: 400 15px Georgia, 'Times New Roman', serif; fill: #345861; }
      .small { font: 400 14px Georgia, 'Times New Roman', serif; fill: #4b686f; }
      .arrow { stroke: #345861; stroke-width: 4; fill: none; marker-end: url(#arrow); stroke-linecap: round; }
    </style>
  </defs>

  <rect width="1200" height="1680" fill="url(#bg)"/>
  <rect x="46" y="42" width="1108" height="1596" rx="34" fill="#fffdfa" filter="url(#shadow)"/>

  <text x="96" y="112" class="title">Mpox and Varicella-Zoster Coinfection Pipeline</text>
  <text x="96" y="144" class="subtitle">Snakemake workflow for pathogen discovery, masked consensus generation, and phylogenetic interpretation.</text>
  <rect x="96" y="168" width="260" height="8" rx="4" fill="#2e5964"/>

  <rect x="88" y="228" width="110" height="34" rx="17" fill="#d57a53"/>
  <text x="143" y="250" text-anchor="middle" class="section-label">01 Input</text>
  <text x="220" y="252" class="section-title">Paired-end reads and run setup</text>
  <rect x="88" y="282" width="1024" height="154" rx="24" fill="#fff3ed" stroke="#d57a53" stroke-width="3"/>
  <rect x="118" y="316" width="472" height="88" rx="18" fill="#ffffff" stroke="#ebb296" stroke-width="2.5"/>
  <text x="146" y="350" class="box-title">Sequencing input</text>
  <text x="146" y="376" class="box-text">
    <tspan x="146" dy="0">Paired-end metagenomic FASTQ</tspan>
    <tspan x="146" dy="20">libraries from the study sample.</tspan>
  </text>
  <rect x="610" y="316" width="472" height="88" rx="18" fill="#ffffff" stroke="#ebb296" stroke-width="2.5"/>
  <text x="638" y="350" class="box-title">Preparation</text>
  <text x="638" y="376" class="box-text">
    <tspan x="638" dy="0">FastQC review, Trimmomatic filtering, and</tspan>
    <tspan x="638" dy="20">config-driven reference selection.</tspan>
  </text>

  <rect x="88" y="492" width="138" height="34" rx="17" fill="#3d8c88"/>
  <text x="157" y="514" text-anchor="middle" class="section-label">02 Discovery</text>
  <text x="248" y="516" class="section-title">Metagenomic discovery branch</text>
  <rect x="88" y="546" width="1024" height="404" rx="24" fill="#edf9f7" stroke="#3d8c88" stroke-width="3"/>

  <rect x="148" y="590" width="904" height="86" rx="18" fill="#ffffff" stroke="#7ab9b4" stroke-width="2.5"/>
  <text x="180" y="624" class="box-title">SPAdes assembly and contig QC</text>
  <text x="180" y="653" class="box-text">Generate contigs and summarize length, GC content, N content, and N50.</text>

  <path class="arrow" d="M 600 676 L 600 742"/>

  <rect x="148" y="748" width="904" height="86" rx="18" fill="#ffffff" stroke="#7ab9b4" stroke-width="2.5"/>
  <text x="180" y="782" class="box-title">Kraken2 and Kaiju taxonomic screening</text>
  <text x="180" y="807" class="box-text">
    <tspan x="180" dy="0">Classify reads and contigs to flag likely viral targets</tspan>
    <tspan x="180" dy="20">in mixed metagenomes.</tspan>
  </text>

  <path class="arrow" d="M 600 834 L 600 900"/>

  <rect x="148" y="906" width="904" height="86" rx="18" fill="#ffffff" stroke="#7ab9b4" stroke-width="2.5"/>
  <text x="180" y="940" class="box-title">BLAST confirmation and target nomination</text>
  <text x="180" y="965" class="box-text">
    <tspan x="180" dy="0">Review top hits to support MPXV and VZV</tspan>
    <tspan x="180" dy="20">selection before targeted analysis.</tspan>
  </text>

  <rect x="88" y="1046" width="154" height="34" rx="17" fill="#5678b5"/>
  <text x="165" y="1068" text-anchor="middle" class="section-label">03 Reference</text>
  <text x="264" y="1070" class="section-title">Virus-specific consensus and phylogeny</text>
  <rect x="88" y="1100" width="1024" height="372" rx="24" fill="#eef3ff" stroke="#5678b5" stroke-width="3"/>

  <rect x="132" y="1146" width="428" height="160" rx="20" fill="#ffffff" stroke="#96aedc" stroke-width="2.5"/>
  <text x="164" y="1182" class="box-title">MPXV branch</text>
  <text x="164" y="1210" class="box-text">
    <tspan x="164" dy="0">Map reads with BWA MEM and track</tspan>
    <tspan x="164" dy="20">duplicate-aware BAMs.</tspan>
    <tspan x="164" dy="24">Call variants, apply a depth mask, and</tspan>
    <tspan x="164" dy="20">emit MPXV consensus FASTA.</tspan>
  </text>

  <rect x="640" y="1146" width="428" height="160" rx="20" fill="#ffffff" stroke="#96aedc" stroke-width="2.5"/>
  <text x="672" y="1182" class="box-title">VZV branch</text>
  <text x="672" y="1210" class="box-text">
    <tspan x="672" dy="0">Run the parallel mapping and consensus</tspan>
    <tspan x="672" dy="20">workflow against the VZV reference.</tspan>
    <tspan x="672" dy="24">Summarize VZV SNPs directly from the</tspan>
    <tspan x="672" dy="20">generated VCF.</tspan>
  </text>

  <path class="arrow" d="M 346 1306 L 346 1328 L 430 1328 L 430 1348"/>
  <path class="arrow" d="M 854 1306 L 854 1328 L 770 1328 L 770 1348"/>

  <rect x="210" y="1348" width="780" height="92" rx="20" fill="#ffffff" stroke="#96aedc" stroke-width="2.5"/>
  <text x="244" y="1384" class="box-title">Context retrieval, alignment, and tree inference</text>
  <text x="244" y="1408" class="box-text">
    <tspan x="244" dy="0">Combine consensus genomes with context references, align with MAFFT,</tspan>
    <tspan x="244" dy="20">and infer trees with IQ-TREE.</tspan>
  </text>

  <rect x="88" y="1494" width="132" height="34" rx="17" fill="#7a5f42"/>
  <text x="154" y="1516" text-anchor="middle" class="section-label">04 Outputs</text>
  <text x="244" y="1518" class="section-title">Manuscript-ready deliverables</text>

  <rect x="88" y="1542" width="1024" height="92" rx="24" fill="#fff7ee" stroke="#7a5f42" stroke-width="3"/>
  <text x="124" y="1578" class="small">
    <tspan x="124" dy="0">Consensus FASTA, coverage tables, contig hit reports, taxonomy summaries,</tspan>
    <tspan x="124" dy="20">mutation summaries, and MPXV/VZV phylogenetic trees.</tspan>
  </text>
</svg>
